<svg xmlns="http://www.w3.org/2000/svg" xmlns:xlink="http://www.w3.org/1999/xlink" width="239.4" height="47.677" viewBox="0 0 239.4 47.677">
  <defs>
    <clipPath id="clip-path">
      <rect id="Rectangle_291" data-name="Rectangle 291" width="239.4" height="47.677" fill="none"/>
    </clipPath>
  </defs>
  <g id="Group_487" data-name="Group 487" transform="translate(0 0)">
    <g id="Group_486" data-name="Group 486" transform="translate(0 0)" clip-path="url(#clip-path)">
      <path id="Path_230" data-name="Path 230" d="M28.849,3.58l-.11.314V34.44c0,3.342-2.383,6.434-6.714,8.708a30.628,30.628,0,0,1-13.6,3.215A19.478,19.478,0,0,1,.11,44.742L0,44.815l3.7,3.818a19.583,19.583,0,0,0,8.421,1.658c9.176,0,20.429-4.6,20.429-12.033V7.4l-3.7-3.818" transform="translate(0 -2.702)"/>
      <path id="Path_231" data-name="Path 231" d="M222.664,42l.164-.081a11.418,11.418,0,0,1-.39-3.026V7.4l-3.7-3.818L218.63,4V35.073c0,3.068,1.081,6.324,4.034,6.925" transform="translate(-165.019 -2.702)"/>
      <path id="Path_232" data-name="Path 232" d="M191.012,3.58,190.9,4V31.824c0,10.525-5,14.627-17.854,14.627-6.069,0-10.65-1.251-13.622-3.713-.1-.078-.184-.162-.275-.243l-.432-.245,3.261,3.377c.039.042.078.081.118.12l.218.226h.007c2.95,2.911,7.71,4.406,14.421,4.406,13.85,0,17.964-4.953,17.964-14.735V7.4Z" transform="translate(-119.8 -2.702)"/>
      <path id="Path_233" data-name="Path 233" d="M485.807,3.41l-.11.427v41.5l-18.131.025-.356.11,3.7,3.818h18.6V7.228Z" transform="translate(-352.644 -2.574)"/>
      <path id="Path_234" data-name="Path 234" d="M407.03,20.033l.056-.346L401.3,7.228,397.6,3.41h-.071v.11L406.066,21.9Z" transform="translate(-300.05 -2.574)"/>
      <path id="Path_235" data-name="Path 235" d="M325.762,74.105,325.608,74l-.054.152V98.639h-7.369l-.245.11,3.7,3.818h7.722V82.112l-.029-.324Z" transform="translate(-239.977 -55.854)"/>
      <path id="Path_236" data-name="Path 236" d="M413.6,87.077V75.765l-.086-.115-.123.066L401.977,99.884H396.42l-.38.11,3.7,3.818h6.005l7.746-16.4Z" transform="translate(-298.926 -57.1)"/>
      <path id="Path_237" data-name="Path 237" d="M709.1,21.35a9.531,9.531,0,0,1,2.246,5.907c0,3.281-.942,7.175-8.278,8.175l-.194.118.194.1c3.148.417,5.471,1.307,7.042,2.7l.314.135-.01-.012c3.637-1.425,4.742-4.078,4.742-7.393a8.012,8.012,0,0,0-2.42-6.054l-3.357-3.472Z" transform="translate(-530.517 -16.115)"/>
      <path id="Path_238" data-name="Path 238" d="M646.04,103.886l.1.01a12.106,12.106,0,0,0,1.26.071,7.984,7.984,0,0,0,2.342-.331l.108-.147V90a7.1,7.1,0,0,1,4.416.873l.191.123a8.765,8.765,0,0,0-2.5-3.126,7.431,7.431,0,0,0-4.882-1.842c-.3,0-.606.015-.934.047l-.1.01Z" transform="translate(-487.622 -64.934)"/>
      <path id="Path_239" data-name="Path 239" d="M647.651,19.47c-.275,0-1.241.034-1.51.034h-.11V32.155l.113,0a17.382,17.382,0,0,0,3.624-.383l.071-.132V23.428s.863-.025,1.4-.025a10.044,10.044,0,0,1,3.168.37l.032-.284C653.59,20.851,651.273,19.47,647.651,19.47Z" transform="translate(-487.615 -14.696)"/>
      <path id="Path_240" data-name="Path 240" d="M614.251,96.182h0l-3.435-3.541-.231-.081a6.831,6.831,0,0,1,.674.834c1.412,2.055,1.584,4.7,1.567,7.02-.007,8.166-7.29,12.307-21.643,12.307H570.75l-.37.11,3.7,3.818h20.806c15.228,0,21.743-4.657,21.75-12.415C616.659,101.169,616.318,98.283,614.251,96.182Z" transform="translate(-430.515 -69.863)"/>
      <path id="Path_241" data-name="Path 241" d="M824.582,36.826h0l-.137-.142c-.074-.076-.147-.152-.221-.226l-3.087-3.178.123.309a20.079,20.079,0,0,1,5.282,13.425c0,12-11.123,21.763-24.793,21.763a26.343,26.343,0,0,1-18.457-7.256c-.194-.1-.351-.174-.351-.174l3.867,3.992.007,0a26.424,26.424,0,0,0,18.634,7.369c13.759,0,24.9-9.782,24.9-21.873A20.306,20.306,0,0,0,824.582,36.826Z" transform="translate(-590.952 -25.119)"/>
      <path id="Path_242" data-name="Path 242" d="M842.023,16.43c-5.044,0-5.723,9.031-5.723,17.869,0,8.511.635,17.2,5.213,17.8l.066-.1c-1.116-3.158-1.471-8.05-1.471-13.877,0-10.368,1.113-17.758,5.613-17.758a3.668,3.668,0,0,1,.439.027l.044-.154c-.937-2.58-2.315-3.8-4.181-3.8" transform="translate(-631.228 -12.401)"/>
      <path id="Path_243" data-name="Path 243" d="M0,40.249a8.332,8.332,0,0,0,3.747,1.064c4.264,0,6.417-2.023,6.417-5.684V3.58H28.849V34.44c0,7.435-11.25,12.033-20.429,12.033A19.591,19.591,0,0,1,0,44.815Z" transform="translate(0 -2.702)" fill="#fff"/>
      <path id="Path_244" data-name="Path 244" d="M317.94,45.469V3.41h19.588L346,21.649,355.448,3.41H373.14V45.469h-18.6V21.239L343.1,45.469h-6.005l-11.429-24.6v24.6Z" transform="translate(-239.977 -2.574)" fill="#fff"/>
      <path id="Path_245" data-name="Path 245" d="M570.38,45.668V3.58h20.733c11.351,0,20.338,1.952,20.338,10.265,0,4.235-1.8,7.388-8.374,8.283,8.879,1.177,9.9,5.892,9.86,11.125-.007,7.759-6.525,12.415-21.75,12.415Zm18.661-4.115a7.6,7.6,0,0,0,6.459-1.959,8.575,8.575,0,0,0,2.695-6.422,9.263,9.263,0,0,0-3.416-7.447,7.313,7.313,0,0,0-5.738-1.773Zm0-21.505a11.234,11.234,0,0,0,5.52-1.145,5.854,5.854,0,0,0,3.016-5.044c0-3.921-2.486-6.263-7.136-6.263-.537,0-1.4.025-1.4.025Z" transform="translate(-430.515 -2.702)" fill="#fff"/>
      <path id="Path_246" data-name="Path 246" d="M758.13,21.9C758.13,9.811,769.273,0,783.022,0s24.9,9.811,24.9,21.9-11.145,21.873-24.9,21.873S758.13,33.987,758.13,21.9m24.892,17.724c4.482,0,5.625-7.391,5.625-17.722S787.5,4.139,783.022,4.139s-5.613,7.391-5.613,17.758c0,10.331,1.111,17.722,5.613,17.722" transform="translate(-572.226)" fill="#fff"/>
      <path id="Path_247" data-name="Path 247" d="M166.818,41.988c-3.855,0-4.939-3.869-4.939-6.915V3.58H143.3V31.824c0,9.676,5.748,14.735,18.109,14.735,13.85,0,17.964-4.953,17.964-14.735V3.58h-7.594V35.051c0,3.055-1.054,6.937-4.961,6.937" transform="translate(-108.161 -2.702)" fill="#fff"/>
    </g>
  </g>
</svg>
