<svg xmlns="http://www.w3.org/2000/svg" xmlns:xlink="http://www.w3.org/1999/xlink" width="82.806" height="56.508" viewBox="0 0 82.806 56.508">
  <defs>
    <clipPath id="clip-path">
      <rect id="Rectangle_504" data-name="Rectangle 504" width="82.806" height="56.508" fill="none"/>
    </clipPath>
  </defs>
  <g id="Group_485" data-name="Group 485" transform="translate(-7 -1)">
    <g id="Group_958" data-name="Group 958" transform="translate(7 1)">
      <rect id="Rectangle_503" data-name="Rectangle 503" width="77.246" height="50.462" transform="translate(3.406 3.377)" fill="#fff"/>
      <g id="Group_957" data-name="Group 957">
        <g id="Group_956" data-name="Group 956" clip-path="url(#clip-path)">
          <path id="Path_435" data-name="Path 435" d="M69.686,23.358a3.3,3.3,0,0,1-.466,1.912,2.289,2.289,0,0,1-1.834.825c-2.116,0-2.834-1.834-2.834-4.134,0-3.523,1.475-6.007,4.163-6.007a7.163,7.163,0,0,1,.98.068Zm6.871,3.1c-.543,0-.825-.32-.825-.97V4.93H67.571V9.141h2.116V12.4c-.466-.039-.941-.078-1.436-.078-5.4,0-9.821,3.484-9.821,9.966,0,5.211,2.8,8.122,7.016,8.122a6.39,6.39,0,0,0,4.891-2.086A3.707,3.707,0,0,0,73.9,30.374a7.417,7.417,0,0,0,3.921-1.145l.213-3.241a3.014,3.014,0,0,1-1.475.466M46.93,26.376c-2.232,0-2.843-1.766-2.843-5s.611-5.037,2.843-5.037,2.843,1.8,2.843,5.037-.621,5-2.843,5m0-14.061c-5.755,0-8.957,3.639-8.957,9.064s3.2,9.015,8.957,9.015c5.716,0,8.947-3.591,8.947-9.015s-3.2-9.064-8.947-9.064M26.6,26.376c-2.232,0-2.843-1.766-2.843-5s.611-5.037,2.843-5.037,2.834,1.8,2.834,5.037-.611,5-2.834,5m0-14.061c-5.755,0-8.957,3.639-8.957,9.064s3.2,9.015,8.957,9.015c5.716,0,8.957-3.591,8.957-9.015s-3.212-9.064-8.957-9.064m-8.4-6.5a16.249,16.249,0,0,0-4.571-.757c-2.261,0-4.173.611-5.221,1.766-1.077,1.184-1.329,2.62-1.329,4.707v1.116H4.27v4.2h2.8V30.083H13.12V16.847h3.232v-4.2H13.12V11.063c0-1.291.573-1.941,1.834-1.941a11.56,11.56,0,0,1,3.232.582ZM77.915,46.92a5.261,5.261,0,0,1-2.358.718c-.9,0-1.135-.563-1.135-1.494V40.971h2.8V37.963h-2.8v-3.93l-4.318.98v2.96H68.075v3.008H70.1V46.1c0,1.873.262,2.911,1.029,3.659a4.2,4.2,0,0,0,2.931.932,7.331,7.331,0,0,0,3.756-1.009Zm-10.238.485a2.45,2.45,0,0,1-1.135.437,1.047,1.047,0,0,1-.98-.592l-2.28-3.6,3.008-5.687H62.068l-2.135,4.221H58.827v-8.2H54.5l.01,16.458h4.318V45.329H59.7l2.106,3.4a4.843,4.843,0,0,0,1.184,1.388,3.5,3.5,0,0,0,2.057.543,4.391,4.391,0,0,0,2.465-.718ZM52.5,37.808a3.367,3.367,0,0,0-.9-.078,3.6,3.6,0,0,0-3.261,2l-.776-1.776H43.494v3.008h1.514v9.481h4.318V43.426c0-1.65.6-2.368,2.038-2.368a8.928,8.928,0,0,1,1.135.078ZM36.236,46.483a1.587,1.587,0,0,1-.388,1.106,1.341,1.341,0,0,1-1.009.388,1.444,1.444,0,0,1-1.514-1.65c0-1,.466-1.747,1.572-1.747a3.821,3.821,0,0,1,1.339.281Zm4.91,1.359c-.378,0-.592-.243-.592-.7V42.359a4.072,4.072,0,0,0-1.213-3.338c-1.048-.893-2.523-1.281-4.658-1.281a13.728,13.728,0,0,0-4.629.844v2.834a9.649,9.649,0,0,1,3.959-.98,2.5,2.5,0,0,1,1.8.543,2.066,2.066,0,0,1,.408,1.533v.369a7.323,7.323,0,0,0-2.494-.437c-2.8,0-4.784,1.407-4.784,4.144,0,2.62,1.7,4.1,4.377,4.1A4.485,4.485,0,0,0,36.8,49.268a2.4,2.4,0,0,0,2.445,1.388,5.4,5.4,0,0,0,2.8-.767l.155-2.368a2.347,2.347,0,0,1-1.058.32M26.221,42.213a4.524,4.524,0,0,0-.563-2.62,4.136,4.136,0,0,0-3.707-1.854,5.041,5.041,0,0,0-3.785,1.718,4.187,4.187,0,0,0-3.62-1.718,4.881,4.881,0,0,0-4.144,1.98l-.767-1.747H5.473v3.008H7.084v9.462H11.4V43.262a2.934,2.934,0,0,1,.311-1.591,1.49,1.49,0,0,1,1.339-.718,1.353,1.353,0,0,1,1.213.64,2.5,2.5,0,0,1,.233,1.291v7.56h4.318V43.262a2.934,2.934,0,0,1,.311-1.591,1.479,1.479,0,0,1,1.339-.718,1.341,1.341,0,0,1,1.213.64,2.609,2.609,0,0,1,.233,1.291v7.56h4.3ZM82.806,0V56.508H0V11.354C0,4.076,4.61,0,11.383,0Z"/>
        </g>
      </g>
    </g>
  </g>
</svg>
